<svg xmlns="http://www.w3.org/2000/svg" viewBox="0 0 1442 115.03"><defs><style>.cls-1{fill:none;stroke:#ef4136;stroke-miterlimit:10;stroke-width:3px;}</style></defs><title>Asset 2</title><g id="Layer_2" data-name="Layer 2"><g id="Layer_1-2" data-name="Layer 1"><path class="cls-1" d="M0,1.5c21.85,0,21.85,112,43.69,112s21.85-112,43.7-112,21.85,112,43.7,112,21.84-112,43.69-112,21.85,112,43.7,112,21.85-112,43.69-112,21.85,112,43.7,112,21.85-112,43.69-112,21.85,112,43.7,112S415.11,1.5,437,1.5s21.85,112,43.69,112,21.85-112,43.7-112,21.85,112,43.7,112,21.84-112,43.69-112,21.84,112,43.69,112,21.84-112,43.69-112,21.85,112,43.69,112,21.85-112,43.7-112,21.85,112,43.7,112,21.85-112,43.69-112,21.85,112,43.7,112,21.85-112,43.7-112,21.84,112,43.69,112,21.85-112,43.7-112,21.85,112,43.7,112,21.85-112,43.7-112,21.85,112,43.7,112,21.85-112,43.69-112,21.85,112,43.7,112,21.86-112,43.71-112,21.85,112,43.7,112,21.85-112,43.7-112,21.86,112,43.71,112"/></g></g></svg>